<svg width="32" height="32" viewBox="0 0 32 32" fill="none" xmlns="http://www.w3.org/2000/svg">
<path fill-rule="evenodd" clip-rule="evenodd" d="M22.597 2.04694L29.9554 9.40534L18.6523 19.2012C18.6123 19.7929 18.4537 20.3811 18.1639 20.9431C17.1646 22.8819 14.8701 23.9997 11.8333 23.9997H5.33327L5.33301 21.3324C6.76954 21.2467 7.41647 19.9804 7.41647 18.6456C7.41647 16.4753 8.69181 14.5119 10.5517 13.626C11.3106 13.2647 12.1378 13.0937 12.9845 13.1383L22.597 2.04694ZM15.1687 17.0567L14.8969 16.7847C13.6499 15.6323 12.4998 15.6519 11.6983 16.0336C10.7663 16.4775 10.083 17.5047 10.0831 18.6456C10.0831 19.7296 9.87234 20.6161 9.52874 21.3331H11.8331C14.2958 21.3331 15.4179 20.4503 15.7937 19.7213C16.1431 19.0433 16.0837 18.0415 15.1687 17.0567ZM18.065 16.1816L15.8207 13.9373L22.7365 5.9576L26.0447 9.26587L18.065 16.1816Z" fill="#484848"/>
<path d="M5.33301 29.3334H26.5699V26.6667H5.33301V29.3334Z" fill="#484848"/>
</svg>
